# xmcd
#
# Track frame offsets:
#	150
#	23682
#	42660
#	103443
#	146430
#	164379
#	212711
#	239469
#	252107
#	263698
#	280127
#	290599
#	304381
#	321336
#
# Disc length: 4411 seconds
#
# Revision: 1
# Processed by: cddbd v1.5.2PL0 Copyright (c) Steve Scherf et al.
# Submitted via: audiograbber 1.83.01
#
DISCID=d811390e
DTITLE=Varius - Csángók mesélnek
DYEAR=1900
DGENRE=
TTITLE0=Vót egyszer egy bacsó s egy bába
TTITLE1=Aki jár iskolába,annak van szerencséje
TTITLE2=A fiastyúk
TTITLE3=A szegénylegény meg a tátos lova
TTITLE4=A szeretet meg az igazság
TTITLE5=A két aranyhajú gyermek
TTITLE6=Az öreg lánya és a báb lánya
TTITLE7=Vót egy lusta legén
TTITLE8=Megetted az életem!
TTITLE9=Mikor elmegyen a róka tyukot lopjon
TTITLE10=Piacozó Péter
TTITLE11=Vót egy ember s felment a fára
TTITLE12=Én vagyok háp,félnyúzott cáp!
TTITLE13=Martba fiam,martba!
EXTD=
EXTT0=
EXTT1=
EXTT2=
EXTT3=
EXTT4=
EXTT5=
EXTT6=
EXTT7=
EXTT8=
EXTT9=
EXTT10=
EXTT11=
EXTT12=
EXTT13=
PLAYORDER=
